<svg width="96" height="110" viewBox="0 0 96 110" fill="none" xmlns="http://www.w3.org/2000/svg">
<path d="M94.717 20.6785C92.3682 10.9633 84.6669 3.04843 75.0883 0.543348C68.2211 -1.25275 61.6483 1.63905 56.0717 5.77051C55.3784 6.28398 54.5869 6.57188 53.8317 6.94785L59.8733 10.8602C61.4563 11.885 61.9171 14.0119 60.8973 15.6104C59.9459 17.1035 57.8531 17.7287 56.1805 16.6416L34.7384 2.75839C30.3224 0.427332 25.484 -0.765053 20.4856 0.543348C10.907 3.05058 3.20565 10.9633 0.856854 20.6785C-1.30421 29.6204 0.767254 38.0401 5.44352 44.4038C10.427 51.1864 12.4152 59.155 13.1854 67.4673C14.124 77.5994 15.3891 87.697 17.6526 97.6142L19.3166 104.908C19.9971 107.888 22.6211 110 25.6462 110C28.6264 110 31.2248 107.948 31.948 105.024L39.3016 75.2855C40.2744 71.3495 43.7731 68.5909 47.7837 68.5909C51.7944 68.5909 55.2931 71.3517 56.2659 75.2855L63.6195 105.024C64.3427 107.948 66.9411 110 69.9213 110C72.9464 110 75.5704 107.888 76.2509 104.908L77.9149 97.6142C80.1784 87.6992 81.4413 77.5994 82.3821 67.4673C83.1523 59.1528 85.1405 51.1864 90.124 44.4038C94.8066 38.0422 96.8781 29.6225 94.717 20.6785Z" fill="#0557BC"/>
</svg>
